<svg width="512" height="512" viewBox="0 0 512 512" fill="none" xmlns="http://www.w3.org/2000/svg" role="img" aria-labelledby="title desc">
  <title id="title">MCP Claw Logo</title>
  <desc id="desc">A stylized lobster holding the letters MCP.</desc>
  <defs>
    <linearGradient id="shell" x1="150" y1="92" x2="360" y2="440" gradientUnits="userSpaceOnUse">
      <stop offset="0" stop-color="#FF7A59"/>
      <stop offset="0.48" stop-color="#EF4444"/>
      <stop offset="1" stop-color="#B91C1C"/>
    </linearGradient>
    <linearGradient id="claw" x1="78" y1="66" x2="430" y2="262" gradientUnits="userSpaceOnUse">
      <stop offset="0" stop-color="#FFB86B"/>
      <stop offset="0.5" stop-color="#F97316"/>
      <stop offset="1" stop-color="#DC2626"/>
    </linearGradient>
    <linearGradient id="badge" x1="154" y1="60" x2="358" y2="150" gradientUnits="userSpaceOnUse">
      <stop offset="0" stop-color="#EAF2FF"/>
      <stop offset="1" stop-color="#BFD7FF"/>
    </linearGradient>
    <filter id="shadow" x="-20%" y="-20%" width="140%" height="150%" color-interpolation-filters="sRGB">
      <feDropShadow dx="0" dy="14" stdDeviation="18" flood-color="#0F172A" flood-opacity="0.28"/>
    </filter>
  </defs>

  <rect x="24" y="24" width="464" height="464" rx="104" fill="#0F172A"/>
  <rect x="25.5" y="25.5" width="461" height="461" rx="102.5" stroke="#334155" stroke-width="3"/>

  <g filter="url(#shadow)">
    <rect x="152" y="62" width="208" height="92" rx="28" fill="url(#badge)" stroke="#60A5FA" stroke-width="6"/>
    <text x="256" y="124" text-anchor="middle" fill="#1E3A8A" font-family="Inter, Segoe UI, Arial, sans-serif" font-size="50" font-weight="900" letter-spacing="4">MCP</text>

    <path d="M185 184C156 144 121 126 82 118" stroke="url(#claw)" stroke-width="24" stroke-linecap="round"/>
    <path d="M327 184C356 144 391 126 430 118" stroke="url(#claw)" stroke-width="24" stroke-linecap="round"/>

    <path d="M108 91C79 83 54 101 51 130C49 154 70 170 96 162C79 148 80 130 98 120C119 109 137 122 145 143C158 120 142 101 108 91Z" fill="url(#claw)" stroke="#7F1D1D" stroke-width="7" stroke-linejoin="round"/>
    <path d="M404 91C433 83 458 101 461 130C463 154 442 170 416 162C433 148 432 130 414 120C393 109 375 122 367 143C354 120 370 101 404 91Z" fill="url(#claw)" stroke="#7F1D1D" stroke-width="7" stroke-linejoin="round"/>

    <path d="M205 189C190 170 186 151 194 134" stroke="#FDBA74" stroke-width="9" stroke-linecap="round"/>
    <path d="M307 189C322 170 326 151 318 134" stroke="#FDBA74" stroke-width="9" stroke-linecap="round"/>

    <ellipse cx="256" cy="288" rx="88" ry="128" fill="url(#shell)" stroke="#7F1D1D" stroke-width="8"/>
    <path d="M256 168C230 190 219 228 219 286C219 344 231 396 256 430C281 396 293 344 293 286C293 228 282 190 256 168Z" fill="#F87171" fill-opacity="0.42"/>

    <path d="M184 248C152 254 127 272 112 301" stroke="#EF4444" stroke-width="16" stroke-linecap="round"/>
    <path d="M328 248C360 254 385 272 400 301" stroke="#EF4444" stroke-width="16" stroke-linecap="round"/>
    <path d="M180 304C148 313 127 333 118 362" stroke="#EF4444" stroke-width="14" stroke-linecap="round"/>
    <path d="M332 304C364 313 385 333 394 362" stroke="#EF4444" stroke-width="14" stroke-linecap="round"/>
    <path d="M192 360C166 374 151 393 148 418" stroke="#EF4444" stroke-width="12" stroke-linecap="round"/>
    <path d="M320 360C346 374 361 393 364 418" stroke="#EF4444" stroke-width="12" stroke-linecap="round"/>

    <path d="M203 238H309" stroke="#991B1B" stroke-width="6" stroke-linecap="round" opacity="0.65"/>
    <path d="M197 287H315" stroke="#991B1B" stroke-width="6" stroke-linecap="round" opacity="0.5"/>
    <path d="M207 338H305" stroke="#991B1B" stroke-width="6" stroke-linecap="round" opacity="0.45"/>

    <circle cx="226" cy="198" r="11" fill="#0F172A"/>
    <circle cx="286" cy="198" r="11" fill="#0F172A"/>
    <circle cx="230" cy="194" r="3" fill="#E0F2FE"/>
    <circle cx="290" cy="194" r="3" fill="#E0F2FE"/>
    <path d="M235 221C248 230 264 230 277 221" stroke="#7F1D1D" stroke-width="7" stroke-linecap="round"/>

    <path d="M241 160C232 132 216 113 194 101" stroke="#F97316" stroke-width="7" stroke-linecap="round"/>
    <path d="M271 160C280 132 296 113 318 101" stroke="#F97316" stroke-width="7" stroke-linecap="round"/>
  </g>
</svg>
